#N canvas 0 22 582 579 10;
#X obj 111 216 nbx 5 14 -1e+37 1e+37 0 0 empty empty empty 0 -8 0 10
-262144 -1 -1 108 256;
#X obj 151 287 osc~;
#X obj 156 391 dac~;
#X obj 456 25 pddp/dsp;
#X obj 219 128 random 100;
#X obj 236 190 + 500;
#X obj 227 36 tgl 15 0 empty empty empty 17 7 0 10 -262144 -1 -1 1
1;
#X obj 231 82 metro 1000;
#X obj 107 59 tgl 15 0 empty empty empty 17 7 0 10 -262144 -1 -1 0
1;
#X obj 195 336 *~;
#X obj 517 312 vsl 15 128 0 127 0 0 empty empty empty 0 -9 0 10 -262144
-1 -1 7600 1;
#X obj 351 413 / 127;
#X obj 391 197 osc~;
#X obj 436 248 sin;
#X connect 0 0 1 0;
#X connect 1 0 9 0;
#X connect 4 0 5 0;
#X connect 6 0 7 0;
#X connect 7 0 4 0;
#X connect 9 0 2 0;
#X connect 9 0 2 1;
#X connect 10 0 11 0;
#X connect 11 0 9 1;
