#N canvas 564 166 595 550 10;
#X obj 431 324 dac~;
#X obj 11 174 s android;
#X obj 11 151 r test;
#X obj 87 152 loadbang;
#X obj 87 174 metro 1000;
#X obj 87 195 tgl 15 0 empty empty empty 17 7 0 10 -262144 -1 -1 1
1;
#X obj 87 239 realtime;
#X obj 87 262 print PD_RUNS;
#X obj 87 216 sel 0;
#X obj 132 217 sel 1;
#X obj 339 17 r freq;
#X obj 391 171 sig~;
#X obj 373 134 line;
#X obj 347 67 t b f;
#X obj 403 230 osc~;
#X obj 444 14 r deltatime;
#X msg 361 99 100;
#X obj 407 275 *~ 0.2;
#X msg 28 71 \; pd dsp \$1 \;;
#X obj 28 51 tgl 15 0 empty empty empty 17 7 0 10 -262144 -1 -1 0 1
;
#X obj 28 29 r mute;
#X obj 351 43 * 20;
#X connect 2 0 1 0;
#X connect 3 0 4 0;
#X connect 4 0 5 0;
#X connect 5 0 8 0;
#X connect 5 0 9 0;
#X connect 6 0 7 0;
#X connect 8 0 6 0;
#X connect 9 0 6 1;
#X connect 10 0 21 0;
#X connect 11 0 14 0;
#X connect 12 0 11 0;
#X connect 13 0 16 0;
#X connect 13 1 12 0;
#X connect 14 0 17 0;
#X connect 16 0 12 1;
#X connect 17 0 0 0;
#X connect 17 0 0 1;
#X connect 19 0 18 0;
#X connect 20 0 19 0;
#X connect 21 0 13 0;
