#N canvas 575 221 582 579 10;
#X obj 94 231 nbx 5 14 -1e+37 1e+37 0 0 empty empty empty 0 -8 0 10
-262144 -1 -1 0 256;
#X obj 151 287 osc~;
#X obj 161 414 dac~;
#X obj 45 134 r freq;
#X obj 385 344 r vol;
#X obj 205 83 r test;
#X obj 205 116 s android;
#X obj 401 66 loadbang;
#X obj 401 88 metro 1000;
#X obj 401 109 tgl 15 0 empty empty empty 17 7 0 10 -262144 -1 -1 0
1;
#X obj 401 153 realtime;
#X obj 401 176 print PD_RUNS;
#X obj 401 130 sel 0;
#X obj 446 131 sel 1;
#X msg 43 67 \; pd dsp \$1 \;;
#X obj 43 47 tgl 15 0 empty empty empty 17 7 0 10 -262144 -1 -1 0 1
;
#X obj 43 25 r mute;
#X obj 123 182 * 20;
#X obj 195 336 *~ 0.2;
#X connect 0 0 1 0;
#X connect 1 0 18 0;
#X connect 3 0 17 0;
#X connect 5 0 6 0;
#X connect 7 0 8 0;
#X connect 8 0 9 0;
#X connect 9 0 12 0;
#X connect 9 0 13 0;
#X connect 10 0 11 0;
#X connect 12 0 10 0;
#X connect 13 0 10 1;
#X connect 15 0 14 0;
#X connect 16 0 15 0;
#X connect 17 0 0 0;
#X connect 18 0 2 0;
#X connect 18 0 2 1;
