#N canvas 257 197 813 592 10;
#X obj 360 368 dac~;
#X obj 360 322 *~ 1;
#X obj -94 104 s android;
#X obj -94 81 r test;
#X obj -94 128 loadbang;
#X obj -94 150 metro 1000;
#X obj -94 171 tgl 15 0 empty empty empty 17 7 0 10 -262144 -1 -1 1
1;
#X obj -94 215 realtime;
#X obj -94 238 print PD_RUNS;
#X obj -94 192 sel 0;
#X obj -49 193 sel 1;
#X obj 391 22 r freq;
#X obj 391 171 sig~;
#X obj 360 172 * 20;
#X obj 391 146 line;
#X obj 360 280 *~;
#X obj 391 239 osc~;
#X obj 360 239 osc~;
#X obj 515 18 r deltatime;
#X floatatom 515 44 5 0 0 0 - - -;
#X msg -95 41 \; pd dsp \$1 \;;
#X obj -95 21 tgl 15 0 empty empty empty 17 7 0 10 -262144 -1 -1 0
1;
#X obj -95 -1 r mute;
#N canvas 0 22 450 300 (subpatch) 0;
#X array array1 100 float 3;
#A 0 95 96 86 98 99 74 102 127 105 107 52 110 33 112 114 16 123 118
-13 112 -26 113 -37 110 106 -53 100 -60 93 89 -57 87 -30 81 76 22 89
95 68 101 105 57 87 107 50 84 46 43 67 38 49 34 31 30 106 33 107 109
59 21 61 59 55 50 48 49 53 22 58 25 52 32 49 41 50 30 56 60 104 63
-13 67 -24 71 74 -35 78 80 -34 82 -28 84 117 86 88 34 90 92 53 94;
#X coords 0 0 99 1000 200 140 1;
#X restore 471 416 graph;
#X obj 401 112 60;
#X obj 397 72 s android;
#X floatatom 391 44 5 0 0 0 - - -;
#N canvas 220 501 479 497 unused 0;
#X obj 246 32 loadbang;
#X obj 246 58 metro 10;
#X obj 158 168 tabwrite array1;
#X obj 246 80 counter 0 0 99;
#X obj 158 277 tabread array1;
#X obj 158 303 sig~;
#X obj 158 332 osc~;
#X floatatom 245 136 5 0 0 0 - - -;
#X connect 0 0 1 0;
#X connect 1 0 3 0;
#X connect 3 0 7 0;
#X connect 4 0 5 0;
#X connect 5 0 6 0;
#X connect 7 0 2 1;
#X restore -58 331 pd unused;
#X obj 194 214 delwrite~ delread_ex 1000;
#X obj 194 238 delread~ delread_ex 10000;
#X connect 1 0 0 0;
#X connect 1 0 0 1;
#X connect 3 0 2 0;
#X connect 4 0 5 0;
#X connect 5 0 6 0;
#X connect 6 0 9 0;
#X connect 6 0 10 0;
#X connect 7 0 8 0;
#X connect 9 0 7 0;
#X connect 10 0 7 1;
#X connect 11 0 26 0;
#X connect 12 0 16 0;
#X connect 13 0 17 0;
#X connect 13 0 28 0;
#X connect 14 0 13 0;
#X connect 14 0 12 0;
#X connect 15 0 1 0;
#X connect 16 0 15 1;
#X connect 17 0 15 0;
#X connect 18 0 19 0;
#X connect 21 0 20 0;
#X connect 22 0 21 0;
#X connect 24 0 14 1;
#X connect 26 0 14 0;
#X connect 26 0 25 0;
#X connect 29 0 15 0;
