#N canvas 930 173 582 579 10;
#X obj 12 71 r test;
#X obj 12 104 s android;
#X obj 401 66 loadbang;
#X obj 401 88 metro 1000;
#X obj 401 109 tgl 15 0 empty empty empty 17 7 0 10 -262144 -1 -1 1
1;
#X obj 401 153 realtime;
#X obj 401 176 print PD_RUNS;
#X obj 401 130 sel 0;
#X obj 446 131 sel 1;
#X obj 272 326 hsl 128 20 0 1 0 1 empty empty pan_position 6 10 1 11
-262131 -1 -1 5800 0;
#X obj 195 336 *~ 0.5;
#X obj 241 134 r balance;
#X obj 180 66 s balance;
#X obj 175 31 nbx 5 14 -1e+37 1e+37 0 0 empty empty empty 0 -8 0 10
-262144 -1 -1 0 256;
#X obj 263 507 dac~;
#N canvas 723 148 450 300 scale 0;
#X obj 61 57 inlet;
#X obj 156 62 inlet;
#X obj 204 63 inlet;
#X obj 250 61 inlet;
#X obj 295 61 inlet;
#X obj 197 485 outlet;
#X obj 128 280 *;
#X text 75 36 x;
#X text 152 37 xmin;
#X text 204 36 xmax;
#X text 245 37 ymin;
#X text 289 39 ymax;
#X obj 173 172 -;
#X obj 291 176 -;
#X obj 207 215 /;
#X text 187 258 a;
#X obj 222 317 +;
#X text 205 511 y;
#X text 317 464 y = a*x+b;
#X text 260 302 b;
#X floatatom 211 428 5 0 0 0 - - -;
#X floatatom 76 184 5 0 0 0 - - -;
#X floatatom 157 89 5 0 0 0 - - -;
#X floatatom 207 89 5 0 0 0 - - -;
#X floatatom 253 88 5 0 0 0 - - -;
#X floatatom 302 87 5 0 0 0 - - -;
#X obj 258 282 -;
#X obj 282 249 *;
#X obj 91 127 t b b b b;
#X connect 0 0 21 0;
#X connect 1 0 22 0;
#X connect 2 0 23 0;
#X connect 3 0 24 0;
#X connect 4 0 25 0;
#X connect 6 0 16 0;
#X connect 12 0 14 1;
#X connect 13 0 14 0;
#X connect 14 0 27 0;
#X connect 14 0 6 1;
#X connect 16 0 20 0;
#X connect 20 0 5 0;
#X connect 21 0 6 0;
#X connect 21 0 28 0;
#X connect 22 0 12 1;
#X connect 22 0 27 1;
#X connect 23 0 12 0;
#X connect 24 0 26 0;
#X connect 24 0 13 1;
#X connect 25 0 13 0;
#X connect 26 0 16 1;
#X connect 27 0 26 1;
#X connect 28 0 22 0;
#X connect 28 1 23 0;
#X connect 28 2 24 0;
#X connect 28 3 25 0;
#X restore 314 269 pd scale;
#X msg 388 233 0;
#X msg 423 233 1;
#X obj 358 199 t b b b b;
#X obj 336 160 loadbang;
#X obj 74 163 r freq;
#X obj 126 317 sig~;
#X obj 108 280 line;
#X obj 82 213 t b f;
#X obj 138 376 osc~;
#X msg 96 245 100;
#X obj 86 189 * 20;
#X obj 26 329 s freq;
#X floatatom 30 282 5 0 0 0 - - -;
#N canvas 315 175 528 411 equal_power 0;
#X obj 33 48 inlet~;
#X obj 244 58 inlet;
#X obj 33 332 outlet~;
#X obj 91 332 outlet~;
#X text 40 352 left;
#X text 94 352 right;
#X obj 319 54 loadbang;
#X msg 319 74 0.5;
#X obj 49 194 expr cos($f1 * 3.14159 / 2);
#X obj 244 194 expr sin($f1 * 3.14159 / 2);
#X text 20 27 [equal_power_pan~];
#X obj 244 134 clip 0 1;
#N canvas 345 242 634 541 pan_core~ 0;
#X obj 21 106 inlet~;
#X obj 226 126 inlet;
#X obj 80 453 *~;
#X obj 80 482 outlet~;
#X obj 210 452 *~;
#X obj 210 481 outlet~;
#X text 87 502 left;
#X text 213 501 right;
#X obj 226 428 line~;
#X obj 96 428 line~;
#X obj 316 123 loadbang;
#X floatatom 339 357 7 0 0 3 blocksize_in_ms - -;
#X obj 287 152 bng 15 250 50 0 empty empty empty 0 -6 0 8 -262144 -1
-1;
#X obj 226 347 t f b;
#X obj 256 366 f;
#X obj 226 389 pack f f;
#X msg 226 409 \$1 \$2;
#X obj 96 347 t f b;
#X obj 126 366 f;
#X obj 96 389 pack f f;
#X msg 96 409 \$1 \$2;
#X obj 96 127 inlet;
#X text 20 27 [pan_core~];
#X obj 494 185 bang;
#X text 539 160 bang to recalculate;
#X obj 494 253 samplerate~;
#X obj 508 321 /;
#X msg 494 299 64;
#X obj 494 280 t b f;
#X text 360 299 default block size:;
#X obj 508 358 * 1000;
#X connect 0 0 2 0;
#X connect 0 0 4 0;
#X connect 1 0 13 0;
#X connect 2 0 3 0;
#X connect 4 0 5 0;
#X connect 8 0 4 1;
#X connect 9 0 2 1;
#X connect 10 0 23 0;
#X connect 12 0 23 0;
#X connect 13 0 15 0;
#X connect 13 1 14 0;
#X connect 14 0 15 1;
#X connect 15 0 16 0;
#X connect 16 0 8 0;
#X connect 17 0 19 0;
#X connect 17 1 18 0;
#X connect 18 0 19 1;
#X connect 19 0 20 0;
#X connect 20 0 9 0;
#X connect 21 0 17 0;
#X connect 23 0 25 0;
#X connect 25 0 28 0;
#X connect 26 0 30 0;
#X connect 27 0 26 0;
#X connect 28 0 27 0;
#X connect 28 1 26 1;
#X connect 30 0 11 0;
#X connect 30 0 14 1;
#X connect 30 0 18 1;
#X restore 42 269 pd pan_core~;
#X connect 0 0 12 0;
#X connect 1 0 11 0;
#X connect 6 0 7 0;
#X connect 7 0 11 0;
#X connect 8 0 12 1;
#X connect 9 0 12 2;
#X connect 11 0 8 0;
#X connect 11 0 9 0;
#X connect 12 0 2 0;
#X connect 12 1 3 0;
#X restore 222 389 pd equal_power;
#X obj 283 245 line;
#X obj 250 167 t b f;
#X msg 264 199 100;
#N canvas 147 307 450 300 del 1;
#X obj 123 230 outlet;
#X obj 168 64 inlet;
#X text 122 37 scaled from -4 to 4;
#X obj 240 241 outlet;
#X text 244 269 right;
#X text 122 257 left;
#X obj 227 111 >;
#X obj 233 65 0;
#X obj 149 113 <;
#X obj 228 162 *;
#X obj 136 142 *;
#X obj 261 213 * 600;
#X obj 93 200 * 600;
#X obj 99 172 / 6;
#X obj 234 190 / 6;
#X connect 1 0 6 0;
#X connect 1 0 8 0;
#X connect 1 0 10 1;
#X connect 1 0 9 1;
#X connect 6 0 9 0;
#X connect 7 0 6 1;
#X connect 7 0 8 1;
#X connect 8 0 10 0;
#X connect 9 0 14 0;
#X connect 10 0 13 0;
#X connect 11 0 3 0;
#X connect 12 0 0 0;
#X connect 13 0 12 0;
#X connect 14 0 11 0;
#X restore 434 341 pd del;
#X msg 325 235 -8;
#X msg 354 234 8;
#X connect 0 0 1 0;
#X connect 2 0 3 0;
#X connect 3 0 4 0;
#X connect 4 0 7 0;
#X connect 4 0 8 0;
#X connect 5 0 6 0;
#X connect 7 0 5 0;
#X connect 8 0 5 1;
#X connect 9 0 29 1;
#X connect 10 0 29 0;
#X connect 11 0 31 0;
#X connect 13 0 12 0;
#X connect 15 0 9 0;
#X connect 16 0 15 3;
#X connect 17 0 15 4;
#X connect 18 0 34 0;
#X connect 18 1 35 0;
#X connect 18 2 16 0;
#X connect 18 3 17 0;
#X connect 19 0 18 0;
#X connect 20 0 26 0;
#X connect 21 0 24 0;
#X connect 22 0 21 0;
#X connect 23 0 25 0;
#X connect 23 1 22 0;
#X connect 24 0 10 0;
#X connect 25 0 22 1;
#X connect 26 0 23 0;
#X connect 28 0 27 0;
#X connect 29 0 14 0;
#X connect 29 1 14 1;
#X connect 30 0 15 0;
#X connect 30 0 33 0;
#X connect 31 0 32 0;
#X connect 31 1 30 0;
#X connect 32 0 30 1;
#X connect 34 0 15 1;
#X connect 35 0 15 2;
