#N canvas 159 110 920 627 10;
#X obj 391 368 dac~;
#X obj 391 322 *~ 1;
#X obj -94 104 s android;
#X obj -94 81 r test;
#X obj -94 128 loadbang;
#X obj -94 150 metro 1000;
#X obj -94 171 tgl 15 0 empty empty empty 17 7 0 10 -262144 -1 -1 1
1;
#X obj -94 215 realtime;
#X obj -94 238 print PD_RUNS;
#X obj -94 192 sel 0;
#X obj -49 193 sel 1;
#X obj 394 22 r freq;
#X obj 391 171 sig~;
#X obj 391 146 line;
#X obj 391 239 osc~;
#X obj 515 18 r deltatime;
#X floatatom 515 44 5 0 0 0 - - -;
#X msg -95 41 \; pd dsp \$1 \;;
#X obj -95 21 tgl 15 0 empty empty empty 17 7 0 10 -262144 -1 -1 1
1;
#X obj -95 -1 r mute;
#X obj 506 118 s android;
#X floatatom 394 44 5 0 0 0 - - -;
#X obj 394 73 t b f;
#X msg 394 108 100;
#N canvas 349 474 884 613 recplay 0;
#X obj 246 32 loadbang;
#X obj 246 58 metro 10;
#X obj 160 136 tabwrite array1;
#X floatatom 247 104 5 0 0 0 - - -;
#X obj 378 76 loadbang;
#X obj 160 44 inlet;
#X obj 321 566 outlet~;
#X obj 321 528 *~;
#X obj 442 435 line~;
#X obj 489 325 t b b;
#X msg 516 348 1 100;
#X obj 489 368 del 800;
#X msg 489 390 0 99;
#X obj 378 104 bng 15 250 50 0 empty empty empty 17 7 0 10 -262144
-1 -1;
#X obj 247 80 counter 0 0 99;
#X obj 321 391 tabread array1;
#X floatatom 321 363 5 0 0 0 - - -;
#X obj 321 339 counter 0 0 99;
#X obj 321 451 sig~;
#X obj 321 474 osc~;
#X obj 321 497 *~ 2;
#X floatatom 326 418 5 0 0 0 - - -;
#X obj 379 130 metro 10000;
#X obj 322 315 metro 99;
#X connect 0 0 1 0;
#X connect 1 0 14 0;
#X connect 3 0 2 1;
#X connect 4 0 13 0;
#X connect 5 0 2 0;
#X connect 7 0 6 0;
#X connect 8 0 7 1;
#X connect 9 0 11 0;
#X connect 9 1 10 0;
#X connect 10 0 8 0;
#X connect 11 0 12 0;
#X connect 12 0 8 0;
#X connect 13 0 22 0;
#X connect 14 0 3 0;
#X connect 15 0 18 0;
#X connect 15 0 21 0;
#X connect 16 0 15 0;
#X connect 17 0 16 0;
#X connect 18 0 19 0;
#X connect 19 0 20 0;
#X connect 20 0 7 0;
#X connect 22 0 9 0;
#X connect 22 0 23 0;
#X connect 23 0 17 0;
#X restore 325 172 pd recplay;
#N canvas 0 22 450 278 (subpatch) 0;
#X array array1 100 float 3;
#A 0 96 38 93 35 32 37 30 87 35 86 34 32 84 38 42 0.0666666 44 80 43
43 46 48 42 39 52 25 40 46 22 70 52 56 68 0.0814815 114 67 49 71 40
36 21 24 78 37 44 63 75 62 42 38 83 29 90 26 135 58 28 35 0.214815
39 92 41 93 59 52 97 39 100 69 37 103 27 104 0.62963 105 51 51 50 26
46 48 24 41 36 32 23 22 28 21 45 119 29 101 33 37 31 39 104 39 101
;
#X coords 0 0 99 1000 200 140 1 0 0;
#X restore 475 439 graph;
#X connect 1 0 0 0;
#X connect 1 0 0 1;
#X connect 3 0 2 0;
#X connect 4 0 5 0;
#X connect 5 0 6 0;
#X connect 6 0 9 0;
#X connect 6 0 10 0;
#X connect 7 0 8 0;
#X connect 9 0 7 0;
#X connect 10 0 7 1;
#X connect 11 0 21 0;
#X connect 12 0 14 0;
#X connect 13 0 12 0;
#X connect 14 0 1 0;
#X connect 15 0 16 0;
#X connect 18 0 17 0;
#X connect 19 0 18 0;
#X connect 21 0 20 0;
#X connect 21 0 24 0;
#X connect 21 0 22 0;
#X connect 22 0 23 0;
#X connect 22 1 13 0;
#X connect 23 0 13 1;
#X connect 24 0 1 0;
