#N canvas 761 171 560 426 10;
#X obj 447 370 dac~;
#X obj 423 321 *~ 1;
#X obj 11 174 s android;
#X obj 11 151 r test;
#X obj 87 152 loadbang;
#X obj 87 174 metro 1000;
#X obj 87 195 tgl 15 0 empty empty empty 17 7 0 10 -262144 -1 -1 1
1;
#X obj 87 239 realtime;
#X obj 87 262 print PD_RUNS;
#X obj 87 216 sel 0;
#X obj 132 217 sel 1;
#X obj 339 17 r freq;
#X obj 391 171 sig~;
#X obj 266 137 * 20;
#X obj 355 89 line;
#X obj 342 41 t b f;
#X obj 404 280 *~;
#X obj 445 238 osc~;
#X obj 337 278 osc~;
#X msg 379 65 60;
#X connect 1 0 0 0;
#X connect 1 0 0 1;
#X connect 3 0 2 0;
#X connect 4 0 5 0;
#X connect 5 0 6 0;
#X connect 6 0 9 0;
#X connect 6 0 10 0;
#X connect 7 0 8 0;
#X connect 9 0 7 0;
#X connect 10 0 7 1;
#X connect 11 0 15 0;
#X connect 12 0 17 0;
#X connect 13 0 18 0;
#X connect 14 0 13 0;
#X connect 14 0 12 0;
#X connect 15 0 19 0;
#X connect 15 1 14 0;
#X connect 16 0 1 0;
#X connect 17 0 16 1;
#X connect 18 0 16 0;
#X connect 19 0 14 1;
